<?xml version="1.0" encoding="UTF-8" standalone="no"?> <svg width="512" height="512" viewBox="0 0 512 512" fill="none" xmlns="http://www.w3.org/2000/svg">
    <path d="M437.333 74.667H74.667C51.1027 74.667 32 93.7697 32 117.334V394.667C32 418.231 51.1027 437.334 74.667 437.334H437.333C460.897 437.334 480 418.231 480 394.667V117.334C480 93.7697 460.897 74.667 437.333 74.667Z" fill="#EAEFF0"/>
    <path d="M437.332 448H74.665C60.5251 447.984 46.9689 442.36 36.9704 432.362C26.972 422.363 21.3479 408.807 21.332 394.667V117.333C21.3479 103.193 26.972 89.6368 36.9704 79.6384C46.9689 69.64 60.5251 64.0159 74.665 64H437.332C451.472 64.0159 465.028 69.64 475.027 79.6384C485.025 89.6368 490.649 103.193 490.665 117.333V394.667C490.649 408.807 485.025 422.363 475.027 432.362C465.028 442.36 451.472 447.984 437.332 448V448ZM74.665 85.333C66.181 85.3425 58.0472 88.717 52.0481 94.7161C46.049 100.715 42.6746 108.849 42.665 117.333V394.667C42.6746 403.151 46.049 411.285 52.0481 417.284C58.0472 423.283 66.181 426.657 74.665 426.667H437.332C445.816 426.657 453.95 423.283 459.949 417.284C465.948 411.285 469.323 403.151 469.332 394.667V117.333C469.323 108.849 465.948 100.715 459.949 94.7161C453.95 88.717 445.816 85.3425 437.332 85.333H74.665Z" fill="black"/>
    <path d="M74.666 181.333C71.8373 181.333 69.1245 180.209 67.1243 178.209C65.1241 176.209 64.0003 173.496 64 170.667V128C64.0064 122.344 66.256 116.922 70.2553 112.922C74.2546 108.923 79.6771 106.673 85.333 106.667H128C129.409 106.653 130.808 106.919 132.114 107.449C133.42 107.979 134.608 108.763 135.609 109.754C136.611 110.746 137.406 111.927 137.948 113.228C138.491 114.528 138.77 115.924 138.77 117.334C138.77 118.743 138.491 120.139 137.948 121.439C137.406 122.74 136.611 123.921 135.609 124.913C134.608 125.904 133.42 126.688 132.114 127.218C130.808 127.748 129.409 128.014 128 128H85.333V170.667C85.3327 173.496 84.2088 176.209 82.2084 178.209C80.2079 180.209 77.4949 181.333 74.666 181.333Z" fill="black"/>
    <path d="M426.665 405.333H383.999C381.188 405.306 378.502 404.17 376.523 402.173C374.545 400.175 373.436 397.478 373.436 394.667C373.436 391.856 374.545 389.158 376.523 387.161C378.502 385.163 381.188 384.027 383.999 384H426.666V341.333C426.693 338.522 427.829 335.836 429.827 333.857C431.824 331.879 434.522 330.77 437.333 330.77C440.144 330.77 442.841 331.879 444.839 333.857C446.836 335.836 447.972 338.522 447.999 341.333V384C447.993 389.656 445.743 395.079 441.744 399.078C437.744 403.078 432.321 405.327 426.665 405.333V405.333Z" fill="black"/>
    <path d="M437.332 181.333C434.503 181.333 431.79 180.209 429.79 178.209C427.789 176.208 426.665 173.495 426.665 170.666V128H383.999C381.188 127.973 378.502 126.837 376.523 124.84C374.545 122.842 373.436 120.145 373.436 117.333C373.436 114.522 374.545 111.825 376.523 109.827C378.502 107.83 381.188 106.694 383.999 106.667H426.666C432.322 106.673 437.745 108.923 441.744 112.922C445.743 116.922 447.993 122.344 447.999 128V170.667C447.999 173.496 446.875 176.209 444.875 178.209C442.874 180.209 440.161 181.333 437.332 181.333V181.333Z" fill="black"/>
    <path d="M128 405.333H85.333C79.6771 405.327 74.2546 403.077 70.2553 399.078C66.256 395.079 64.0064 389.656 64 384V341.333C64.0272 338.522 65.163 335.836 67.1604 333.857C69.1578 331.879 71.8553 330.77 74.6665 330.77C77.4777 330.77 80.1752 331.879 82.1726 333.857C84.17 335.836 85.3058 338.522 85.333 341.333V384H128C129.409 383.987 130.808 384.252 132.114 384.782C133.42 385.312 134.608 386.096 135.609 387.088C136.611 388.079 137.406 389.26 137.948 390.561C138.491 391.862 138.77 393.257 138.77 394.667C138.77 396.076 138.491 397.472 137.948 398.773C137.406 400.074 136.611 401.254 135.609 402.246C134.608 403.238 133.42 404.021 132.114 404.551C130.808 405.081 129.409 405.347 128 405.333V405.333Z" fill="black"/>
    <path d="M217.416 182.145C215.467 181.337 213.322 181.126 211.252 181.537C209.183 181.949 207.282 182.965 205.791 184.457L141.791 248.457C140.299 249.949 139.283 251.85 138.871 253.919C138.459 255.988 138.671 258.133 139.478 260.082C140.285 262.031 141.653 263.697 143.407 264.869C145.161 266.042 147.224 266.667 149.334 266.667H202.667V320C202.667 322.829 203.79 325.542 205.791 327.543C207.791 329.543 210.505 330.667 213.334 330.667C216.163 330.667 218.876 329.543 220.876 327.543C222.877 325.542 224.001 322.829 224.001 320V192C224.001 189.89 223.375 187.828 222.203 186.074C221.031 184.32 219.365 182.952 217.416 182.145V182.145ZM202.667 245.333H175.086L202.667 217.751V245.333Z" fill="black"/>
    <path stroke="white" d="M303.786 247.861L349.13 199.278C351.06 197.209 352.09 194.459 351.992 191.631C351.894 188.803 350.677 186.13 348.608 184.2C346.539 182.27 343.789 181.24 340.961 181.338C338.133 181.436 335.46 182.653 333.53 184.722L277.33 244.938V192C277.357 190.582 277.102 189.173 276.578 187.855C276.055 186.537 275.274 185.337 274.28 184.324C273.287 183.312 272.102 182.507 270.795 181.958C269.487 181.409 268.083 181.126 266.665 181.126C265.247 181.126 263.843 181.409 262.535 181.958C261.228 182.507 260.043 183.312 259.05 184.324C258.057 185.337 257.275 186.537 256.752 187.855C256.228 189.173 255.973 190.582 256 192V320C255.986 321.409 256.252 322.808 256.782 324.114C257.312 325.42 258.096 326.608 259.087 327.609C260.079 328.611 261.26 329.406 262.561 329.948C263.862 330.491 265.257 330.77 266.667 330.77C268.076 330.77 269.472 330.491 270.772 329.948C272.073 329.406 273.254 328.611 274.246 327.609C275.238 326.608 276.021 325.42 276.551 324.114C277.081 322.808 277.347 321.409 277.333 320V276.2L288.907 263.8L332.598 326.12C334.228 328.423 336.703 329.986 339.482 330.468C342.261 330.95 345.118 330.312 347.428 328.693C349.738 327.073 351.312 324.605 351.807 321.828C352.302 319.051 351.676 316.191 350.067 313.874L303.786 247.861Z" fill="black"/>
</svg>
